<svg width="137" height="32" viewBox="0 0 137 32" fill="none" xmlns="http://www.w3.org/2000/svg">
<path d="M17.049 0.019043L0 11.0404L7.59215 15.9483L17.049 9.83492L26.5059 15.9483L34.0982 11.0404L17.049 0.019043Z" fill="#816AFE"/>
<path d="M7.59205 15.9482L0 20.8561L17.049 31.8775L34.0982 20.8561L26.5061 15.9482L17.049 22.0618L7.59205 15.9482Z" fill="#48D3FE"/>
<path d="M53.0781 19.9688C53 20.8516 52.7969 21.5859 52.4688 22.1719C52.1484 22.75 51.7539 23.2148 51.2852 23.5664C50.8164 23.9102 50.2969 24.1523 49.7266 24.293C49.1641 24.4336 48.6016 24.5039 48.0391 24.5039C47.4531 24.5039 46.8867 24.4219 46.3398 24.2578C45.8008 24.1016 45.3242 23.8633 44.9102 23.543C44.4961 23.2227 44.1641 22.8203 43.9141 22.3359C43.6719 21.8516 43.5508 21.2852 43.5508 20.6367C43.5508 20.1367 43.625 19.7188 43.7734 19.3828C43.9297 19.0469 44.1211 18.7773 44.3477 18.5742C44.5742 18.3711 44.8164 18.2305 45.0742 18.1523C45.332 18.0664 45.5703 18.0234 45.7891 18.0234C46.0156 18.0234 46.25 18.0586 46.4922 18.1289C46.7344 18.1992 46.957 18.3164 47.1602 18.4805C47.3633 18.6445 47.5273 18.8672 47.6523 19.1484C47.7852 19.4219 47.8516 19.7656 47.8516 20.1797C47.8516 20.1875 47.8438 20.2617 47.8281 20.4023C47.8203 20.5352 47.7773 20.6914 47.6992 20.8711C47.6211 21.043 47.5 21.2148 47.3359 21.3867C47.1797 21.5508 46.9492 21.668 46.6445 21.7383C46.8633 22.0117 47.1172 22.2188 47.4062 22.3594C47.7031 22.4922 47.9531 22.5586 48.1562 22.5586C48.3594 22.5586 48.5898 22.5234 48.8477 22.4531C49.1133 22.3828 49.3594 22.2656 49.5859 22.1016C49.8203 21.9297 50.0156 21.707 50.1719 21.4336C50.3359 21.1523 50.418 20.8008 50.418 20.3789C50.418 19.8867 50.332 19.4492 50.1602 19.0664C49.9961 18.6836 49.7812 18.3477 49.5156 18.0586C49.2578 17.7617 48.9648 17.5039 48.6367 17.2852C48.3164 17.0586 48.0039 16.8555 47.6992 16.6758C47.4961 16.5586 47.2539 16.4219 46.9727 16.2656C46.6914 16.1016 46.3984 15.9102 46.0938 15.6914C45.7891 15.4648 45.4883 15.2109 45.1914 14.9297C44.8945 14.6406 44.625 14.3164 44.3828 13.957C44.1484 13.5898 43.957 13.1836 43.8086 12.7383C43.668 12.293 43.5977 11.8008 43.5977 11.2617C43.5977 10.457 43.7383 9.75391 44.0195 9.15234C44.3008 8.54297 44.6641 8.03516 45.1094 7.62891C45.5625 7.22266 46.0742 6.91797 46.6445 6.71484C47.2148 6.51172 47.793 6.41016 48.3789 6.41016C48.9648 6.41016 49.5234 6.49219 50.0547 6.65625C50.5859 6.8125 51.0508 7.04297 51.4492 7.34766C51.8555 7.64453 52.1758 8.00391 52.4102 8.42578C52.6523 8.83984 52.7734 9.30469 52.7734 9.82031C52.7734 10.3438 52.6875 10.7578 52.5156 11.0625C52.3438 11.3672 52.1367 11.5977 51.8945 11.7539C51.6602 11.9102 51.418 12.0117 51.168 12.0586C50.9258 12.0977 50.7305 12.1172 50.582 12.1172C50.3945 12.1172 50.1992 12.082 49.9961 12.0117C49.793 11.9414 49.6055 11.8359 49.4336 11.6953C49.2695 11.5547 49.1328 11.3828 49.0234 11.1797C48.9141 10.9766 48.8594 10.7383 48.8594 10.4648C48.8672 10.293 48.8867 10.1211 48.918 9.94922C48.9492 9.80078 48.9961 9.64062 49.0586 9.46875C49.1211 9.29688 49.2148 9.13281 49.3398 8.97656C49.2148 8.86719 49.0938 8.78125 48.9766 8.71875C48.8594 8.65625 48.75 8.60938 48.6484 8.57812C48.5312 8.54688 48.418 8.52734 48.3086 8.51953C48.0898 8.51953 47.8672 8.55859 47.6406 8.63672C47.4219 8.71484 47.2188 8.83203 47.0312 8.98828C46.8516 9.14453 46.7031 9.34375 46.5859 9.58594C46.4688 9.82031 46.4102 10.0977 46.4102 10.418C46.4102 10.793 46.4688 11.1328 46.5859 11.4375C46.7031 11.7344 46.8867 12.0234 47.1367 12.3047C47.3867 12.5859 47.7031 12.8711 48.0859 13.1602C48.4766 13.4492 48.9414 13.7656 49.4805 14.1094C50.1133 14.5078 50.6562 14.9062 51.1094 15.3047C51.5703 15.7031 51.9453 16.1133 52.2344 16.5352C52.5312 16.957 52.75 17.4023 52.8906 17.8711C53.0312 18.332 53.1016 18.832 53.1016 19.3711C53.1016 19.4648 53.1016 19.5625 53.1016 19.6641C53.1016 19.7578 53.0938 19.8594 53.0781 19.9688ZM57.6953 24.1172L54.6016 24.4336C54.6172 23.9102 54.6289 23.3672 54.6367 22.8047C54.6523 22.2344 54.6641 21.668 54.6719 21.1055C54.6797 20.543 54.6875 19.9922 54.6953 19.4531C54.7031 18.9062 54.707 18.3906 54.707 17.9062C54.7148 16.7656 54.7188 15.6445 54.7188 14.543C54.7109 13.5586 54.6992 12.6055 54.6836 11.6836C54.6758 11.293 54.6641 10.8906 54.6484 10.4766C54.6406 10.0625 54.6289 9.65625 54.6133 9.25781C54.5977 8.85938 54.5781 8.48438 54.5547 8.13281C54.5391 7.77344 54.5156 7.45312 54.4844 7.17188L57.4375 7.03125C57.4219 7.51562 57.4062 8.01562 57.3906 8.53125C57.3828 9.03906 57.375 9.54688 57.3672 10.0547C57.3594 10.5547 57.3516 11.0391 57.3438 11.5078C57.3438 11.9766 57.3438 12.4141 57.3438 12.8203C57.3438 14.8594 57.3672 16.8047 57.4141 18.6562C57.4688 20.5 57.5625 22.3203 57.6953 24.1172ZM68.6406 19.9688C68.5625 20.8516 68.3594 21.5859 68.0312 22.1719C67.7109 22.75 67.3164 23.2148 66.8477 23.5664C66.3789 23.9102 65.8594 24.1523 65.2891 24.293C64.7266 24.4336 64.1641 24.5039 63.6016 24.5039C63.0156 24.5039 62.4492 24.4219 61.9023 24.2578C61.3633 24.1016 60.8867 23.8633 60.4727 23.543C60.0586 23.2227 59.7266 22.8203 59.4766 22.3359C59.2344 21.8516 59.1133 21.2852 59.1133 20.6367C59.1133 20.1367 59.1875 19.7188 59.3359 19.3828C59.4922 19.0469 59.6836 18.7773 59.9102 18.5742C60.1367 18.3711 60.3789 18.2305 60.6367 18.1523C60.8945 18.0664 61.1328 18.0234 61.3516 18.0234C61.5781 18.0234 61.8125 18.0586 62.0547 18.1289C62.2969 18.1992 62.5195 18.3164 62.7227 18.4805C62.9258 18.6445 63.0898 18.8672 63.2148 19.1484C63.3477 19.4219 63.4141 19.7656 63.4141 20.1797C63.4141 20.1875 63.4062 20.2617 63.3906 20.4023C63.3828 20.5352 63.3398 20.6914 63.2617 20.8711C63.1836 21.043 63.0625 21.2148 62.8984 21.3867C62.7422 21.5508 62.5117 21.668 62.207 21.7383C62.4258 22.0117 62.6797 22.2188 62.9688 22.3594C63.2656 22.4922 63.5156 22.5586 63.7188 22.5586C63.9219 22.5586 64.1523 22.5234 64.4102 22.4531C64.6758 22.3828 64.9219 22.2656 65.1484 22.1016C65.3828 21.9297 65.5781 21.707 65.7344 21.4336C65.8984 21.1523 65.9805 20.8008 65.9805 20.3789C65.9805 19.8867 65.8945 19.4492 65.7227 19.0664C65.5586 18.6836 65.3438 18.3477 65.0781 18.0586C64.8203 17.7617 64.5273 17.5039 64.1992 17.2852C63.8789 17.0586 63.5664 16.8555 63.2617 16.6758C63.0586 16.5586 62.8164 16.4219 62.5352 16.2656C62.2539 16.1016 61.9609 15.9102 61.6562 15.6914C61.3516 15.4648 61.0508 15.2109 60.7539 14.9297C60.457 14.6406 60.1875 14.3164 59.9453 13.957C59.7109 13.5898 59.5195 13.1836 59.3711 12.7383C59.2305 12.293 59.1602 11.8008 59.1602 11.2617C59.1602 10.457 59.3008 9.75391 59.582 9.15234C59.8633 8.54297 60.2266 8.03516 60.6719 7.62891C61.125 7.22266 61.6367 6.91797 62.207 6.71484C62.7773 6.51172 63.3555 6.41016 63.9414 6.41016C64.5273 6.41016 65.0859 6.49219 65.6172 6.65625C66.1484 6.8125 66.6133 7.04297 67.0117 7.34766C67.418 7.64453 67.7383 8.00391 67.9727 8.42578C68.2148 8.83984 68.3359 9.30469 68.3359 9.82031C68.3359 10.3438 68.25 10.7578 68.0781 11.0625C67.9062 11.3672 67.6992 11.5977 67.457 11.7539C67.2227 11.9102 66.9805 12.0117 66.7305 12.0586C66.4883 12.0977 66.293 12.1172 66.1445 12.1172C65.957 12.1172 65.7617 12.082 65.5586 12.0117C65.3555 11.9414 65.168 11.8359 64.9961 11.6953C64.832 11.5547 64.6953 11.3828 64.5859 11.1797C64.4766 10.9766 64.4219 10.7383 64.4219 10.4648C64.4297 10.293 64.4492 10.1211 64.4805 9.94922C64.5117 9.80078 64.5586 9.64062 64.6211 9.46875C64.6836 9.29688 64.7773 9.13281 64.9023 8.97656C64.7773 8.86719 64.6562 8.78125 64.5391 8.71875C64.4219 8.65625 64.3125 8.60938 64.2109 8.57812C64.0938 8.54688 63.9805 8.52734 63.8711 8.51953C63.6523 8.51953 63.4297 8.55859 63.2031 8.63672C62.9844 8.71484 62.7812 8.83203 62.5938 8.98828C62.4141 9.14453 62.2656 9.34375 62.1484 9.58594C62.0312 9.82031 61.9727 10.0977 61.9727 10.418C61.9727 10.793 62.0312 11.1328 62.1484 11.4375C62.2656 11.7344 62.4492 12.0234 62.6992 12.3047C62.9492 12.5859 63.2656 12.8711 63.6484 13.1602C64.0391 13.4492 64.5039 13.7656 65.043 14.1094C65.6758 14.5078 66.2188 14.9062 66.6719 15.3047C67.1328 15.7031 67.5078 16.1133 67.7969 16.5352C68.0938 16.957 68.3125 17.4023 68.4531 17.8711C68.5938 18.332 68.6641 18.832 68.6641 19.3711C68.6641 19.4648 68.6641 19.5625 68.6641 19.6641C68.6641 19.7578 68.6562 19.8594 68.6406 19.9688ZM79.5039 12.4336C79.4961 13.457 79.3008 14.3633 78.918 15.1523C78.543 15.9336 78.0508 16.5898 77.4414 17.1211C76.8398 17.6523 76.168 18.0547 75.4258 18.3281C74.6836 18.6016 73.9453 18.7383 73.2109 18.7383H72.9766C72.9766 19.0664 72.9766 19.457 72.9766 19.9102C72.9844 20.3555 72.9961 20.8438 73.0117 21.375C73.0273 21.8984 73.0469 22.4492 73.0703 23.0273C73.1016 23.5977 73.1406 24.168 73.1875 24.7383C72.7266 24.6914 72.3047 24.6602 71.9219 24.6445C71.5391 24.6289 71.2031 24.6211 70.9141 24.6211C70.7578 24.6211 70.6211 24.6211 70.5039 24.6211C70.3867 24.6289 70.2891 24.6328 70.2109 24.6328C70.1172 24.6406 70.0391 24.6445 69.9766 24.6445C70.0156 24.0352 70.0508 23.4258 70.082 22.8164C70.1133 22.1992 70.1406 21.5977 70.1641 21.0117C70.1875 20.418 70.2031 19.8477 70.2109 19.3008C70.2266 18.7539 70.2422 18.2383 70.2578 17.7539C70.2812 16.6289 70.2969 15.5508 70.3047 14.5195C70.3047 13.5273 70.2969 12.5781 70.2812 11.6719C70.2734 11.2891 70.2656 10.8945 70.2578 10.4883C70.25 10.082 70.2383 9.6875 70.2227 9.30469C70.2148 8.92188 70.2031 8.56641 70.1875 8.23828C70.1797 7.90234 70.1641 7.61328 70.1406 7.37109C70.7422 7.26172 71.3281 7.19531 71.8984 7.17188C72.4766 7.14062 72.9531 7.125 73.3281 7.125C73.6172 7.125 73.9727 7.13672 74.3945 7.16016C74.8164 7.18359 75.2539 7.25 75.707 7.35938C76.168 7.46094 76.625 7.625 77.0781 7.85156C77.5312 8.07031 77.9375 8.375 78.2969 8.76562C78.6562 9.15625 78.9453 9.65234 79.1641 10.2539C79.3906 10.8477 79.5039 11.5742 79.5039 12.4336ZM76.4805 12.5273C76.4805 11.9336 76.4141 11.4258 76.2812 11.0039C76.1484 10.5742 75.9453 10.2227 75.6719 9.94922C75.4062 9.67578 75.0625 9.46875 74.6406 9.32812C74.2266 9.1875 73.7344 9.10156 73.1641 9.07031C73.1328 9.75781 73.1055 10.4805 73.082 11.2383C73.0664 11.9961 73.0508 12.7344 73.0352 13.4531C73.0195 14.1641 73.0078 14.8281 73 15.4453C72.9922 16.0547 72.9844 16.5547 72.9766 16.9453C73.5625 16.9141 74.0742 16.7852 74.5117 16.5586C74.9492 16.332 75.3125 16.0273 75.6016 15.6445C75.8984 15.2617 76.1172 14.8086 76.2578 14.2852C76.4062 13.7539 76.4805 13.168 76.4805 12.5273ZM87.6953 24.2109C87.5312 23.9844 87.4062 23.7305 87.3203 23.4492C87.2422 23.168 87.1836 22.9023 87.1445 22.6523C87.1055 22.3945 87.082 22.1719 87.0742 21.9844C87.0742 21.7969 87.0742 21.6836 87.0742 21.6445C87.0742 21.3945 87.0625 21.0977 87.0391 20.7539C87.0234 20.4023 86.9805 20.043 86.9102 19.6758C86.8398 19.3008 86.7383 18.9336 86.6055 18.5742C86.4805 18.207 86.3047 17.8789 86.0781 17.5898C85.8594 17.3008 85.5859 17.0703 85.2578 16.8984C84.9375 16.7188 84.5508 16.6289 84.0977 16.6289C84.0352 16.6289 83.9688 16.6328 83.8984 16.6406C83.8359 16.6484 83.7734 16.6523 83.7109 16.6523V23.9531L80.4766 24.0234C80.5234 23.75 80.5625 23.4297 80.5938 23.0625C80.6328 22.6875 80.6641 22.293 80.6875 21.8789C80.7109 21.457 80.7305 21.0195 80.7461 20.5664C80.7617 20.1133 80.7734 19.668 80.7812 19.2305C80.7891 18.793 80.793 18.3711 80.793 17.9648C80.8008 17.5508 80.8047 17.1797 80.8047 16.8516C80.8047 16.6016 80.8008 16.2344 80.793 15.75C80.793 15.2656 80.7852 14.7227 80.7695 14.1211C80.7617 13.5117 80.75 12.875 80.7344 12.2109C80.7266 11.5391 80.7148 10.8984 80.6992 10.2891C80.6836 9.67188 80.6641 9.11328 80.6406 8.61328C80.625 8.10547 80.6094 7.71484 80.5938 7.44141C81.0234 7.35547 81.4844 7.29297 81.9766 7.25391C82.4688 7.20703 82.9258 7.17188 83.3477 7.14844C83.8398 7.11719 84.3281 7.10156 84.8125 7.10156C85.5938 7.07031 86.3281 7.13672 87.0156 7.30078C87.7031 7.45703 88.3047 7.72656 88.8203 8.10938C89.3438 8.48438 89.7578 8.97266 90.0625 9.57422C90.375 10.168 90.5391 10.8789 90.5547 11.707C90.4297 12.293 90.2305 12.8359 89.957 13.3359C89.8398 13.5469 89.6992 13.7656 89.5352 13.9922C89.3789 14.2109 89.1914 14.418 88.9727 14.6133C88.7617 14.8086 88.5195 14.9883 88.2461 15.1523C87.9727 15.3086 87.668 15.4336 87.332 15.5273C87.832 15.7227 88.2383 15.9531 88.5508 16.2188C88.8633 16.4766 89.1094 16.7695 89.2891 17.0977C89.4688 17.418 89.5977 17.7656 89.6758 18.1406C89.7617 18.5078 89.8203 18.8984 89.8516 19.3125C89.8906 19.7188 89.9219 20.1406 89.9453 20.5781C89.9688 21.0078 90.0117 21.4453 90.0742 21.8906C90.1367 22.2266 90.2148 22.5469 90.3086 22.8516C90.3945 23.1172 90.5 23.3867 90.625 23.6602C90.7578 23.9258 90.918 24.1445 91.1055 24.3164L87.6953 24.2109ZM87.5781 11.8594C87.5703 11.3594 87.4609 10.9102 87.25 10.5117C87.1562 10.3477 87.0352 10.1836 86.8867 10.0195C86.7461 9.85547 86.5664 9.71094 86.3477 9.58594C86.1367 9.46094 85.8789 9.35938 85.5742 9.28125C85.2773 9.20312 84.9297 9.16406 84.5312 9.16406C84.2266 9.16406 83.8906 9.20703 83.5234 9.29297L83.5703 14.5898C83.7109 14.6133 83.8516 14.6328 83.9922 14.6484C84.1328 14.6562 84.2617 14.6602 84.3789 14.6602C84.7539 14.6602 85.0859 14.6211 85.375 14.543C85.6641 14.4648 85.918 14.3594 86.1367 14.2266C86.3555 14.0938 86.543 13.9453 86.6992 13.7812C86.8555 13.6172 86.9883 13.4453 87.0977 13.2656C87.3477 12.8516 87.5078 12.3828 87.5781 11.8594ZM100.281 24.2695C99.6484 24.2539 99.0586 24.2422 98.5117 24.2344C97.9727 24.2344 97.4609 24.2344 96.9766 24.2344C96.0312 24.2344 95.2383 24.2422 94.5977 24.2578C93.9648 24.2812 93.4492 24.3008 93.0508 24.3164C92.582 24.3398 92.2109 24.3633 91.9375 24.3867C91.9922 23.8633 92.0391 23.3359 92.0781 22.8047C92.125 22.2734 92.1641 21.75 92.1953 21.2344C92.2266 20.7188 92.2539 20.2227 92.2773 19.7461C92.3008 19.2695 92.3203 18.8203 92.3359 18.3984C92.3672 17.4141 92.3867 16.4727 92.3945 15.5742C92.3867 14.6367 92.3672 13.6758 92.3359 12.6914C92.3203 12.2695 92.3008 11.8281 92.2773 11.3672C92.2539 10.8984 92.2266 10.4219 92.1953 9.9375C92.1641 9.45312 92.125 8.96875 92.0781 8.48438C92.0391 7.99219 91.9922 7.51562 91.9375 7.05469C92.9141 7.09375 93.7852 7.125 94.5508 7.14844C95.3242 7.16406 96.0117 7.17188 96.6133 7.17188C97.207 7.17188 97.7188 7.16797 98.1484 7.16016C98.5781 7.14453 98.9297 7.12891 99.2031 7.11328C99.5234 7.09766 99.7891 7.07812 100 7.05469C100 7.04687 100 7.11719 100 7.26562C100 7.41406 100.004 7.60937 100.012 7.85156C100.02 8.09375 100.031 8.36719 100.047 8.67188C100.07 8.97656 100.102 9.28516 100.141 9.59766C99.2344 9.51172 98.4414 9.45703 97.7617 9.43359C97.082 9.40234 96.5 9.38672 96.0156 9.38672C95.8125 9.38672 95.6328 9.38672 95.4766 9.38672C95.3281 9.38672 95.1875 9.39453 95.0547 9.41016C95.0391 10.2773 95.0273 11.0938 95.0195 11.8594C95.0117 12.6172 95.0078 13.3359 95.0078 14.0156C95.5547 14 96.043 13.9805 96.4727 13.957C96.9023 13.9258 97.2695 13.8906 97.5742 13.8516C97.9258 13.8125 98.2383 13.7695 98.5117 13.7227C98.5039 13.7773 98.5 13.8398 98.5 13.9102C98.4922 13.9727 98.4883 14.0469 98.4883 14.1328C98.4883 14.2188 98.4883 14.3164 98.4883 14.4258C98.4883 14.6758 98.4961 14.9766 98.5117 15.3281C98.5273 15.6719 98.5586 16.043 98.6055 16.4414C97.7617 16.332 97.0352 16.2656 96.4258 16.2422C95.8164 16.2109 95.3438 16.1953 95.0078 16.1953C95.0078 17.0078 95.0117 17.7344 95.0195 18.375C95.0273 19.0078 95.0352 19.5664 95.043 20.0508C95.0586 20.5352 95.0703 20.9492 95.0781 21.293C95.0938 21.6367 95.1094 21.9219 95.125 22.1484C95.9219 22.1328 96.6328 22.0938 97.2578 22.0312C97.8828 21.9688 98.4102 21.9062 98.8398 21.8438C99.2695 21.7734 99.5977 21.7109 99.8242 21.6562C100.051 21.6016 100.164 21.5664 100.164 21.5508C100.156 21.5898 100.152 21.6328 100.152 21.6797C100.145 21.7188 100.141 21.7695 100.141 21.832C100.141 21.8945 100.141 21.9688 100.141 22.0547C100.141 22.2734 100.148 22.5664 100.164 22.9336C100.18 23.3008 100.219 23.7461 100.281 24.2695ZM111.766 6.79688C111.727 7.42969 111.691 8.08984 111.66 8.77734C111.637 9.45703 111.613 10.1406 111.59 10.8281C111.574 11.5156 111.559 12.1914 111.543 12.8555C111.535 13.5195 111.527 14.1445 111.52 14.7305C111.512 15.3164 111.508 15.8516 111.508 16.3359C111.508 16.8203 111.508 17.2305 111.508 17.5664C111.508 18.0039 111.508 18.4883 111.508 19.0195C111.508 19.5508 111.512 20.0977 111.52 20.6602C111.527 21.2227 111.535 21.7891 111.543 22.3594C111.559 22.9219 111.578 23.4531 111.602 23.9531C111.266 23.9375 110.957 23.9297 110.676 23.9297C110.402 23.9297 110.152 23.9297 109.926 23.9297C109.52 23.9297 109.184 23.9336 108.918 23.9414C108.652 23.9492 108.441 23.9609 108.285 23.9766C108.098 23.9922 107.953 24.0078 107.852 24.0234C107.828 23.8594 107.777 23.6055 107.699 23.2617C107.629 22.9102 107.535 22.4961 107.418 22.0195C107.309 21.543 107.18 21.0156 107.031 20.4375C106.883 19.8594 106.723 19.2578 106.551 18.6328C106.387 18.0078 106.215 17.375 106.035 16.7344C105.855 16.0859 105.676 15.457 105.496 14.8477C105.324 14.2305 105.152 13.6484 104.98 13.1016C104.816 12.5469 104.664 12.0508 104.523 11.6133C104.461 12.6133 104.414 13.5391 104.383 14.3906C104.352 15.2344 104.328 15.9727 104.312 16.6055C104.289 17.3398 104.277 18.0117 104.277 18.6211C104.277 19.1445 104.289 19.6992 104.312 20.2852C104.328 20.7852 104.355 21.3555 104.395 21.9961C104.441 22.6367 104.508 23.2891 104.594 23.9531C103.992 23.9297 103.496 23.918 103.105 23.918C102.723 23.9102 102.418 23.9062 102.191 23.9062H101.617C101.656 22.5078 101.688 21.3203 101.711 20.3438C101.734 19.3672 101.75 18.5508 101.758 17.8945C101.773 17.2305 101.781 16.6992 101.781 16.3008C101.789 15.9023 101.793 15.582 101.793 15.3398C101.793 15.0898 101.789 14.8906 101.781 14.7422C101.781 14.5938 101.781 14.4414 101.781 14.2852C101.781 13.8945 101.777 13.4297 101.77 12.8906C101.77 12.3516 101.762 11.7734 101.746 11.1562C101.73 10.5312 101.707 9.88281 101.676 9.21094C101.645 8.53906 101.602 7.875 101.547 7.21875C102.344 7.21875 103 7.21094 103.516 7.19531C104.031 7.17969 104.441 7.16406 104.746 7.14844C105.105 7.125 105.383 7.10156 105.578 7.07812C105.617 7.32812 105.695 7.71875 105.812 8.25C105.938 8.78125 106.082 9.39844 106.246 10.1016C106.418 10.7969 106.609 11.5508 106.82 12.3633C107.031 13.1758 107.246 13.9961 107.465 14.8242C107.691 15.6445 107.918 16.4453 108.145 17.2266C108.371 18 108.586 18.6992 108.789 19.3242C108.828 18.6602 108.855 17.9844 108.871 17.2969C108.895 16.6016 108.91 15.9531 108.918 15.3516C108.934 14.75 108.941 14.2266 108.941 13.7812C108.941 13.3281 108.941 13.0156 108.941 12.8438C108.934 12.1328 108.918 11.4219 108.895 10.7109C108.887 10.4062 108.875 10.0898 108.859 9.76172C108.844 9.43359 108.824 9.10547 108.801 8.77734C108.785 8.44141 108.762 8.11328 108.73 7.79297C108.707 7.47266 108.68 7.17188 108.648 6.89062L111.766 6.79688ZM123.555 15.9609C123.555 17.2344 123.434 18.3359 123.191 19.2656C122.957 20.1875 122.652 20.9766 122.277 21.6328C121.902 22.2812 121.48 22.8086 121.012 23.2148C120.543 23.6211 120.074 23.9336 119.605 24.1523C119.137 24.3789 118.695 24.5312 118.281 24.6094C117.867 24.6953 117.527 24.7383 117.262 24.7383C117.199 24.7383 117.059 24.7344 116.84 24.7266C116.629 24.7188 116.367 24.6992 116.055 24.668C115.742 24.6445 115.387 24.6055 114.988 24.5508C114.598 24.4961 114.188 24.418 113.758 24.3164C113.766 22.7695 113.773 21.4297 113.781 20.2969C113.797 19.1562 113.809 18.1758 113.816 17.3555C113.824 16.5352 113.832 15.8477 113.84 15.293C113.848 14.7383 113.852 14.2617 113.852 13.8633C113.859 13.4648 113.863 13.125 113.863 12.8438C113.871 12.5547 113.875 12.2734 113.875 12C113.875 11.5703 113.871 11.1289 113.863 10.6758C113.855 10.2148 113.84 9.76953 113.816 9.33984C113.793 8.91016 113.762 8.50781 113.723 8.13281C113.684 7.75781 113.633 7.4375 113.57 7.17188C114.18 7.13281 114.734 7.10938 115.234 7.10156C115.742 7.08594 116.18 7.07812 116.547 7.07812C117.469 7.07812 118.281 7.19141 118.984 7.41797C119.688 7.63672 120.297 7.94531 120.812 8.34375C121.336 8.73438 121.77 9.20703 122.113 9.76172C122.465 10.3086 122.746 10.9102 122.957 11.5664C123.176 12.2227 123.328 12.9258 123.414 13.6758C123.508 14.418 123.555 15.1797 123.555 15.9609ZM120.508 15.5977C120.508 14.2148 120.441 13.0898 120.309 12.2227C120.184 11.3477 119.977 10.668 119.688 10.1836C119.406 9.69922 119.035 9.37109 118.574 9.19922C118.121 9.01953 117.57 8.92969 116.922 8.92969H116.57L116.711 22.6992C116.867 22.7617 117.012 22.8047 117.145 22.8281C117.285 22.8438 117.422 22.8516 117.555 22.8516C118.078 22.8516 118.523 22.7305 118.891 22.4883C119.266 22.2383 119.57 21.832 119.805 21.2695C120.047 20.6992 120.223 19.9531 120.332 19.0312C120.449 18.1016 120.508 16.957 120.508 15.5977ZM135.66 15.5977C135.66 16.8477 135.543 18.0195 135.309 19.1133C135.074 20.207 134.727 21.1641 134.266 21.9844C133.805 22.7969 133.23 23.4414 132.543 23.918C131.863 24.3867 131.078 24.6211 130.188 24.6211C129.281 24.6211 128.484 24.3867 127.797 23.918C127.117 23.4414 126.547 22.7969 126.086 21.9844C125.633 21.1641 125.289 20.207 125.055 19.1133C124.828 18.0195 124.715 16.8477 124.715 15.5977C124.715 14.3555 124.824 13.1875 125.043 12.0938C125.27 11 125.609 10.0469 126.062 9.23438C126.516 8.42188 127.086 7.78125 127.773 7.3125C128.461 6.83594 129.266 6.59766 130.188 6.59766C131.141 6.59766 131.961 6.83594 132.648 7.3125C133.344 7.78125 133.914 8.42188 134.359 9.23438C134.805 10.0469 135.133 11 135.344 12.0938C135.555 13.1875 135.66 14.3555 135.66 15.5977ZM132.59 15.5977C132.59 14.6289 132.551 13.7188 132.473 12.8672C132.395 12.0078 132.262 11.2617 132.074 10.6289C131.895 9.98828 131.648 9.48438 131.336 9.11719C131.031 8.75 130.648 8.56641 130.188 8.56641C129.742 8.56641 129.367 8.75 129.062 9.11719C128.758 9.48438 128.512 9.98828 128.324 10.6289C128.137 11.2617 128 12.0078 127.914 12.8672C127.828 13.7188 127.785 14.6289 127.785 15.5977C127.785 16.5742 127.828 17.4922 127.914 18.3516C128 19.2031 128.137 19.9492 128.324 20.5898C128.52 21.2227 128.77 21.7266 129.074 22.1016C129.379 22.4688 129.75 22.6523 130.188 22.6523C130.617 22.6523 130.984 22.4688 131.289 22.1016C131.594 21.7266 131.844 21.2227 132.039 20.5898C132.234 19.9492 132.375 19.2031 132.461 18.3516C132.547 17.4922 132.59 16.5742 132.59 15.5977Z" fill="black"/>
</svg>
